<mxfile host="Electron" modified="2024-08-01T05:53:58.574Z" agent="Mozilla/5.0 (Windows NT 10.0; Win64; x64) AppleWebKit/537.36 (KHTML, like Gecko) draw.io/24.6.4 Chrome/124.0.6367.207 Electron/30.0.6 Safari/537.36" etag="dkI2mOCkJgw6-3QVA114" version="24.6.4" type="device">
  <diagram name="Page-1" id="VVRI4tftbG_qb4eAN4vM">
    <mxGraphModel dx="1235" dy="731" grid="0" gridSize="10" guides="1" tooltips="1" connect="1" arrows="1" fold="1" page="1" pageScale="1" pageWidth="1100" pageHeight="850" background="#1a1919" math="0" shadow="0">
      <root>
        <mxCell id="0" />
        <mxCell id="1" parent="0" />
        <mxCell id="Le_4CFs3N0Vk1kADJN7t-14" style="edgeStyle=orthogonalEdgeStyle;rounded=0;orthogonalLoop=1;jettySize=auto;html=1;entryX=0;entryY=0.5;entryDx=0;entryDy=0;strokeColor=#FFFFFF;" edge="1" parent="1" source="Le_4CFs3N0Vk1kADJN7t-2" target="Le_4CFs3N0Vk1kADJN7t-4">
          <mxGeometry relative="1" as="geometry" />
        </mxCell>
        <mxCell id="Le_4CFs3N0Vk1kADJN7t-2" value="Document loader" style="ellipse;whiteSpace=wrap;html=1;" vertex="1" parent="1">
          <mxGeometry x="320" y="200" width="90" height="80" as="geometry" />
        </mxCell>
        <mxCell id="Le_4CFs3N0Vk1kADJN7t-15" style="edgeStyle=orthogonalEdgeStyle;rounded=0;orthogonalLoop=1;jettySize=auto;html=1;entryX=0;entryY=0.5;entryDx=0;entryDy=0;strokeColor=#FFFFFF;" edge="1" parent="1" source="Le_4CFs3N0Vk1kADJN7t-4" target="Le_4CFs3N0Vk1kADJN7t-5">
          <mxGeometry relative="1" as="geometry" />
        </mxCell>
        <mxCell id="Le_4CFs3N0Vk1kADJN7t-4" value="Semantic chunker" style="ellipse;whiteSpace=wrap;html=1;" vertex="1" parent="1">
          <mxGeometry x="450" y="200" width="90" height="80" as="geometry" />
        </mxCell>
        <mxCell id="Le_4CFs3N0Vk1kADJN7t-16" style="edgeStyle=orthogonalEdgeStyle;rounded=0;orthogonalLoop=1;jettySize=auto;html=1;entryX=0;entryY=0.5;entryDx=0;entryDy=0;strokeColor=#FFFFFF;" edge="1" parent="1" source="Le_4CFs3N0Vk1kADJN7t-5" target="Le_4CFs3N0Vk1kADJN7t-6">
          <mxGeometry relative="1" as="geometry" />
        </mxCell>
        <mxCell id="Le_4CFs3N0Vk1kADJN7t-5" value="Text splitter" style="ellipse;whiteSpace=wrap;html=1;" vertex="1" parent="1">
          <mxGeometry x="580" y="200" width="90" height="80" as="geometry" />
        </mxCell>
        <mxCell id="Le_4CFs3N0Vk1kADJN7t-44" style="edgeStyle=orthogonalEdgeStyle;rounded=0;orthogonalLoop=1;jettySize=auto;html=1;exitX=0;exitY=1;exitDx=0;exitDy=0;entryX=0;entryY=0;entryDx=0;entryDy=0;strokeColor=#32aad2;strokeWidth=2;" edge="1" parent="1" source="Le_4CFs3N0Vk1kADJN7t-6" target="Le_4CFs3N0Vk1kADJN7t-17">
          <mxGeometry relative="1" as="geometry" />
        </mxCell>
        <mxCell id="Le_4CFs3N0Vk1kADJN7t-6" value="Vector Store" style="ellipse;whiteSpace=wrap;html=1;" vertex="1" parent="1">
          <mxGeometry x="710" y="200" width="90" height="80" as="geometry" />
        </mxCell>
        <mxCell id="Le_4CFs3N0Vk1kADJN7t-48" style="edgeStyle=orthogonalEdgeStyle;rounded=0;orthogonalLoop=1;jettySize=auto;html=1;exitX=1;exitY=0.5;exitDx=0;exitDy=0;exitPerimeter=0;entryX=0;entryY=0.5;entryDx=0;entryDy=0;strokeColor=#FFFFFF;" edge="1" parent="1" source="Le_4CFs3N0Vk1kADJN7t-8" target="Le_4CFs3N0Vk1kADJN7t-2">
          <mxGeometry relative="1" as="geometry" />
        </mxCell>
        <mxCell id="Le_4CFs3N0Vk1kADJN7t-8" value="Multi-documents" style="strokeWidth=2;html=1;shape=mxgraph.flowchart.multi-document;whiteSpace=wrap;" vertex="1" parent="1">
          <mxGeometry x="50" y="210" width="88" height="60" as="geometry" />
        </mxCell>
        <mxCell id="Le_4CFs3N0Vk1kADJN7t-39" style="edgeStyle=orthogonalEdgeStyle;rounded=0;orthogonalLoop=1;jettySize=auto;html=1;exitX=0;exitY=0.5;exitDx=0;exitDy=0;entryX=1;entryY=0.5;entryDx=0;entryDy=0;strokeColor=#1eb4e6;strokeWidth=2;" edge="1" parent="1" source="Le_4CFs3N0Vk1kADJN7t-17" target="Le_4CFs3N0Vk1kADJN7t-18">
          <mxGeometry relative="1" as="geometry" />
        </mxCell>
        <mxCell id="Le_4CFs3N0Vk1kADJN7t-43" style="edgeStyle=orthogonalEdgeStyle;rounded=0;orthogonalLoop=1;jettySize=auto;html=1;strokeColor=#82b366;fontColor=#20df50;strokeWidth=2;fillColor=#d5e8d4;" edge="1" parent="1" source="Le_4CFs3N0Vk1kADJN7t-17" target="Le_4CFs3N0Vk1kADJN7t-6">
          <mxGeometry relative="1" as="geometry" />
        </mxCell>
        <mxCell id="Le_4CFs3N0Vk1kADJN7t-17" value="Retreiver&amp;nbsp;" style="ellipse;whiteSpace=wrap;html=1;" vertex="1" parent="1">
          <mxGeometry x="710" y="385" width="90" height="80" as="geometry" />
        </mxCell>
        <mxCell id="Le_4CFs3N0Vk1kADJN7t-40" style="edgeStyle=orthogonalEdgeStyle;rounded=0;orthogonalLoop=1;jettySize=auto;html=1;entryX=1;entryY=0.5;entryDx=0;entryDy=0;strokeColor=#1eb4e6;strokeWidth=2;" edge="1" parent="1" source="Le_4CFs3N0Vk1kADJN7t-18" target="Le_4CFs3N0Vk1kADJN7t-19">
          <mxGeometry relative="1" as="geometry" />
        </mxCell>
        <mxCell id="Le_4CFs3N0Vk1kADJN7t-18" value="Reranker" style="ellipse;whiteSpace=wrap;html=1;" vertex="1" parent="1">
          <mxGeometry x="550" y="385" width="90" height="80" as="geometry" />
        </mxCell>
        <mxCell id="Le_4CFs3N0Vk1kADJN7t-41" style="edgeStyle=orthogonalEdgeStyle;rounded=0;orthogonalLoop=1;jettySize=auto;html=1;entryX=1;entryY=0.5;entryDx=0;entryDy=0;strokeColor=#1eb4e6;strokeWidth=2;" edge="1" parent="1" source="Le_4CFs3N0Vk1kADJN7t-19" target="Le_4CFs3N0Vk1kADJN7t-21">
          <mxGeometry relative="1" as="geometry" />
        </mxCell>
        <mxCell id="Le_4CFs3N0Vk1kADJN7t-19" value="LLM chain filter" style="ellipse;whiteSpace=wrap;html=1;" vertex="1" parent="1">
          <mxGeometry x="390" y="385" width="90" height="80" as="geometry" />
        </mxCell>
        <mxCell id="Le_4CFs3N0Vk1kADJN7t-26" style="edgeStyle=orthogonalEdgeStyle;rounded=0;orthogonalLoop=1;jettySize=auto;html=1;exitX=0;exitY=0.5;exitDx=0;exitDy=0;entryX=0.5;entryY=1;entryDx=0;entryDy=0;strokeColor=#1eb4e6;strokeWidth=2;" edge="1" parent="1" source="Le_4CFs3N0Vk1kADJN7t-29" target="Le_4CFs3N0Vk1kADJN7t-28">
          <mxGeometry relative="1" as="geometry">
            <mxPoint x="90" y="620" as="targetPoint" />
          </mxGeometry>
        </mxCell>
        <mxCell id="Le_4CFs3N0Vk1kADJN7t-32" style="edgeStyle=orthogonalEdgeStyle;rounded=0;orthogonalLoop=1;jettySize=auto;html=1;exitX=0.5;exitY=1;exitDx=0;exitDy=0;entryX=1;entryY=0.5;entryDx=0;entryDy=0;strokeColor=#1eb4e6;strokeWidth=2;" edge="1" parent="1" source="Le_4CFs3N0Vk1kADJN7t-20" target="Le_4CFs3N0Vk1kADJN7t-29">
          <mxGeometry relative="1" as="geometry" />
        </mxCell>
        <mxCell id="Le_4CFs3N0Vk1kADJN7t-37" style="edgeStyle=orthogonalEdgeStyle;rounded=0;orthogonalLoop=1;jettySize=auto;html=1;exitX=0;exitY=0;exitDx=0;exitDy=0;entryX=0.5;entryY=1;entryDx=0;entryDy=0;strokeColor=#82b366;fontColor=#20df50;strokeWidth=2;fillColor=#d5e8d4;" edge="1" parent="1" source="Le_4CFs3N0Vk1kADJN7t-20" target="Le_4CFs3N0Vk1kADJN7t-21">
          <mxGeometry relative="1" as="geometry">
            <Array as="points">
              <mxPoint x="403" y="530" />
              <mxPoint x="250" y="530" />
            </Array>
          </mxGeometry>
        </mxCell>
        <mxCell id="Le_4CFs3N0Vk1kADJN7t-42" style="edgeStyle=orthogonalEdgeStyle;rounded=0;orthogonalLoop=1;jettySize=auto;html=1;exitX=1;exitY=0.5;exitDx=0;exitDy=0;entryX=0.5;entryY=1;entryDx=0;entryDy=0;strokeColor=#82b366;fontColor=#20df50;strokeWidth=2;fillColor=#d5e8d4;" edge="1" parent="1" source="Le_4CFs3N0Vk1kADJN7t-20" target="Le_4CFs3N0Vk1kADJN7t-17">
          <mxGeometry relative="1" as="geometry" />
        </mxCell>
        <mxCell id="Le_4CFs3N0Vk1kADJN7t-20" value="QA chain" style="ellipse;whiteSpace=wrap;html=1;" vertex="1" parent="1">
          <mxGeometry x="390" y="550" width="90" height="80" as="geometry" />
        </mxCell>
        <mxCell id="Le_4CFs3N0Vk1kADJN7t-38" style="edgeStyle=orthogonalEdgeStyle;rounded=0;orthogonalLoop=1;jettySize=auto;html=1;exitX=1;exitY=1;exitDx=0;exitDy=0;strokeColor=#1eb4e6;strokeWidth=2;" edge="1" parent="1" source="Le_4CFs3N0Vk1kADJN7t-21" target="Le_4CFs3N0Vk1kADJN7t-20">
          <mxGeometry relative="1" as="geometry">
            <Array as="points">
              <mxPoint x="270" y="500" />
              <mxPoint x="435" y="500" />
            </Array>
          </mxGeometry>
        </mxCell>
        <mxCell id="Le_4CFs3N0Vk1kADJN7t-21" value="LLM" style="rhombus;whiteSpace=wrap;html=1;" vertex="1" parent="1">
          <mxGeometry x="210" y="385" width="80" height="80" as="geometry" />
        </mxCell>
        <mxCell id="Le_4CFs3N0Vk1kADJN7t-23" style="edgeStyle=orthogonalEdgeStyle;rounded=0;orthogonalLoop=1;jettySize=auto;html=1;entryX=0;entryY=0.5;entryDx=0;entryDy=0;strokeColor=#82b366;fontColor=#20df50;strokeWidth=2;fillColor=#d5e8d4;" edge="1" parent="1" source="Le_4CFs3N0Vk1kADJN7t-24" target="Le_4CFs3N0Vk1kADJN7t-20">
          <mxGeometry relative="1" as="geometry" />
        </mxCell>
        <mxCell id="Le_4CFs3N0Vk1kADJN7t-25" value="" style="edgeStyle=orthogonalEdgeStyle;rounded=0;orthogonalLoop=1;jettySize=auto;html=1;entryX=0;entryY=0.5;entryDx=0;entryDy=0;strokeColor=#82b366;fontColor=#20df50;strokeWidth=2;fillColor=#d5e8d4;" edge="1" parent="1" target="Le_4CFs3N0Vk1kADJN7t-24">
          <mxGeometry relative="1" as="geometry">
            <mxPoint x="90" y="590" as="sourcePoint" />
            <mxPoint x="403" y="562" as="targetPoint" />
          </mxGeometry>
        </mxCell>
        <mxCell id="Le_4CFs3N0Vk1kADJN7t-24" value="What are penguins known for" style="text;html=1;align=left;verticalAlign=middle;whiteSpace=wrap;rounded=0;strokeColor=default;fontColor=#FFFFFF;" vertex="1" parent="1">
          <mxGeometry x="180" y="570" width="120" height="30" as="geometry" />
        </mxCell>
        <mxCell id="Le_4CFs3N0Vk1kADJN7t-28" value="&lt;div&gt;&lt;br&gt;&lt;/div&gt;&lt;div&gt;&lt;br&gt;&lt;/div&gt;User" style="shape=actor;whiteSpace=wrap;html=1;" vertex="1" parent="1">
          <mxGeometry x="50" y="560" width="40" height="60" as="geometry" />
        </mxCell>
        <mxCell id="Le_4CFs3N0Vk1kADJN7t-29" value="Answer" style="text;html=1;align=center;verticalAlign=middle;whiteSpace=wrap;rounded=0;fontColor=#FFFFFF;" vertex="1" parent="1">
          <mxGeometry x="200" y="630" width="60" height="30" as="geometry" />
        </mxCell>
        <mxCell id="Le_4CFs3N0Vk1kADJN7t-45" value="" style="rounded=1;whiteSpace=wrap;html=1;fillColor=none;dashed=1;strokeColor=#FFFFFF;" vertex="1" parent="1">
          <mxGeometry x="370" y="370" width="555" height="110" as="geometry" />
        </mxCell>
        <mxCell id="Le_4CFs3N0Vk1kADJN7t-46" value="Retreival" style="text;html=1;align=center;verticalAlign=middle;whiteSpace=wrap;rounded=0;fontSize=18;fontColor=#FFFFFF;" vertex="1" parent="1">
          <mxGeometry x="840" y="373" width="60" height="30" as="geometry" />
        </mxCell>
        <mxCell id="Le_4CFs3N0Vk1kADJN7t-47" value="" style="rounded=1;whiteSpace=wrap;html=1;fillColor=none;dashed=1;fontColor=#FFFFFF;strokeColor=#FFFFFF;" vertex="1" parent="1">
          <mxGeometry x="285" y="160" width="615" height="140" as="geometry" />
        </mxCell>
        <mxCell id="Le_4CFs3N0Vk1kADJN7t-49" value="Ingestion" style="text;html=1;align=center;verticalAlign=middle;whiteSpace=wrap;rounded=0;fontSize=18;fontColor=#FFFFFF;" vertex="1" parent="1">
          <mxGeometry x="820" y="180" width="60" height="30" as="geometry" />
        </mxCell>
        <mxCell id="Le_4CFs3N0Vk1kADJN7t-51" value="&lt;h1 style=&quot;margin-top: 0px;&quot;&gt;RagBase data flow&lt;/h1&gt;" style="text;html=1;whiteSpace=wrap;overflow=hidden;rounded=0;fontColor=#FFFFFF;" vertex="1" parent="1">
          <mxGeometry x="440" y="40" width="240" height="54" as="geometry" />
        </mxCell>
      </root>
    </mxGraphModel>
  </diagram>
</mxfile>
